<svg width="22" height="24" viewBox="0 0 22 24" fill="none" xmlns="http://www.w3.org/2000/svg">
<g clip-path="url(#clip0_79_602)">
<path d="M21.434 8.25H18.8695L18.1568 6.3C17.4243 4.29516 15.6763 3 13.7029 3H8.26298C6.29004 3 4.54156 4.29516 3.80866 6.3L3.09591 8.25H0.531859C0.197325 8.25 -0.0481138 8.59406 0.0332709 8.94891L0.290275 10.0739C0.347245 10.3242 0.552848 10.5 0.788864 10.5H1.64854C1.07328 11.0498 0.702767 11.8491 0.702767 12.75V15C0.702767 15.7556 0.966625 16.4377 1.38811 16.9655V19.5C1.38811 20.3283 2.00192 21 2.7588 21H4.12949C4.88637 21 5.50018 20.3283 5.50018 19.5V18H16.4657V19.5C16.4657 20.3283 17.0795 21 17.8364 21H19.2071C19.964 21 20.5778 20.3283 20.5778 19.5V16.9655C20.9993 16.4381 21.2631 15.7561 21.2631 15V12.75C21.2631 11.8491 20.8926 11.0498 20.3178 10.5H21.1774C21.4135 10.5 21.6191 10.3242 21.676 10.0739L21.933 8.94891C22.014 8.59406 21.7686 8.25 21.434 8.25ZM6.35386 7.41422C6.66612 6.56016 7.42215 6 8.26298 6H13.7029C14.5437 6 15.2998 6.56016 15.612 7.41422L16.4657 9.75H5.50018L6.35386 7.41422ZM4.12949 14.9906C3.30708 14.9906 2.7588 14.3925 2.7588 13.4953C2.7588 12.5981 3.30708 12 4.12949 12C4.95191 12 6.18553 13.3458 6.18553 14.243C6.18553 15.1402 4.95191 14.9906 4.12949 14.9906ZM17.8364 14.9906C17.014 14.9906 15.7804 15.1402 15.7804 14.243C15.7804 13.3458 17.014 12 17.8364 12C18.6588 12 19.2071 12.5981 19.2071 13.4953C19.2071 14.3925 18.6588 14.9906 17.8364 14.9906Z" fill="white"/>
</g>
<defs>
<clipPath id="clip0_79_602">
<rect width="21.931" height="24" fill="white" transform="translate(0.017334)"/>
</clipPath>
</defs>
</svg>
