<svg width="51" height="48" viewBox="0 0 51 48" fill="none" xmlns="http://www.w3.org/2000/svg">
<path d="M39.5151 26.2016H34.7834L33.4683 22.8678C32.1169 19.4401 28.8916 17.2258 25.2506 17.2258H15.2134C11.5732 17.2258 8.34711 19.4401 6.99487 22.8678L5.67977 26.2016H0.948891C0.331649 26.2016 -0.121207 26.7899 0.0289545 27.3965L0.503149 29.3199C0.608262 29.7479 0.987617 30.0484 1.42309 30.0484H3.00927C1.94786 30.9885 1.26423 32.3549 1.26423 33.8952V37.742C1.26423 39.0338 1.75107 40.1999 2.52875 41.1023V45.4355C2.52875 46.8516 3.66128 48 5.05778 48H7.58682C8.98332 48 10.1159 46.8516 10.1159 45.4355V42.871H30.3481V45.4355C30.3481 46.8516 31.4807 48 32.8772 48H35.4062C36.8027 48 37.9352 46.8516 37.9352 45.4355V41.1023C38.7129 40.2007 39.1998 39.0346 39.1998 37.742V33.8952C39.1998 32.3549 38.5161 30.9885 37.4555 30.0484H39.0417C39.4772 30.0484 39.8565 29.7479 39.9616 29.3199L40.4358 27.3965C40.5852 26.7899 40.1323 26.2016 39.5151 26.2016ZM11.691 24.7727C12.2671 23.3125 13.662 22.3549 15.2134 22.3549H25.2506C26.802 22.3549 28.1969 23.3125 28.773 24.7727L30.3481 28.7662H10.1159L11.691 24.7727ZM7.58682 37.7259C6.0694 37.7259 5.05778 36.7033 5.05778 35.1694C5.05778 33.6355 6.0694 32.6129 7.58682 32.6129C9.10424 32.6129 11.3804 34.9138 11.3804 36.4477C11.3804 37.9816 9.10424 37.7259 7.58682 37.7259ZM32.8772 37.7259C31.3598 37.7259 29.0836 37.9816 29.0836 36.4477C29.0836 34.9138 31.3598 32.6129 32.8772 32.6129C34.3946 32.6129 35.4062 33.6355 35.4062 35.1694C35.4062 36.7033 34.3946 37.7259 32.8772 37.7259Z" fill="white"/>
<path d="M44.3987 20.3603C44.3987 16.8565 43.0995 13.4807 40.7591 10.903C38.4186 8.32534 35.2079 6.73422 31.7643 6.44545L31.6147 8.27952C34.6045 8.53022 37.392 9.91163 39.4239 12.1495C41.4559 14.3875 42.5838 17.3183 42.5838 20.3603H44.3987Z" fill="white"/>
<path d="M38.2164 19.7906C38.2164 18.003 37.5536 16.2806 36.3595 14.9655C35.1654 13.6504 33.5273 12.8386 31.7703 12.6912L31.6412 14.2741C33.0064 14.3886 34.2793 15.0194 35.2072 16.0413C36.135 17.0632 36.6501 18.4016 36.6501 19.7906H38.2164Z" fill="white"/>
<path d="M50.4743 22.4445C50.7587 19.6603 50.4702 16.8465 49.6271 14.1811C48.784 11.5158 47.4046 9.05681 45.5762 6.95978C43.7478 4.86275 41.5102 3.17327 39.0048 1.9982C36.4994 0.82312 33.7809 0.188016 31.021 0.133051L30.9842 2.03093C33.4852 2.08074 35.9487 2.65625 38.219 3.72107C40.4893 4.78589 42.5169 6.31685 44.1738 8.21712C45.8306 10.1174 47.0806 12.3456 47.8446 14.7609C48.6086 17.1762 48.87 19.7259 48.6123 22.2489L50.4743 22.4445Z" fill="white"/>
</svg>
