<svg width="144" height="120" viewBox="0 0 144 120" fill="none" xmlns="http://www.w3.org/2000/svg">
<path fill-rule="evenodd" clip-rule="evenodd" d="M72.8526 0.498161C87.7159 3.14773 92.3323 19.514 104.227 27.6561C115.319 35.2491 132.825 35.4991 139.639 46.2145C146.795 57.4666 143.865 71.4077 139.923 83.7863C135.828 96.6478 130.497 110.984 116.967 117.413C103.745 123.695 87.8941 116.694 72.8526 115.653C59.3882 114.72 45.2586 117.524 33.5954 111.638C21.3147 105.44 13.7666 94.4227 8.306 83.0779C2.444 70.899 -2.60872 57.6355 1.48688 44.9291C5.66467 31.9678 17.7761 22.3639 30.4113 14.4975C43.0048 6.65701 57.6498 -2.21196 72.8526 0.498161Z" fill="#F1BC00"/>
</svg>
