<svg width="47" height="45" viewBox="0 0 47 45" fill="none" xmlns="http://www.w3.org/2000/svg">
<path d="M36.3589 23.99H32.0051L30.7951 20.9224C29.5516 17.7686 26.5839 15.7311 23.2337 15.7311H13.9983C10.6488 15.7311 7.68039 17.7686 6.43616 20.9224L5.2261 23.99H0.873099C0.305158 23.99 -0.111526 24.5313 0.0266418 25.0895L0.46296 26.8592C0.559677 27.253 0.908732 27.5295 1.30942 27.5295H2.7689C1.79228 28.3945 1.16325 29.6518 1.16325 31.069V34.6086C1.16325 35.7972 1.6112 36.8702 2.32677 37.7005V41.6876C2.32677 42.9906 3.36884 44.0473 4.6538 44.0473H6.98083C8.26578 44.0473 9.30786 42.9906 9.30786 41.6876V39.3279H27.9241V41.6876C27.9241 42.9906 28.9662 44.0473 30.2511 44.0473H32.5782C33.8631 44.0473 34.9052 42.9906 34.9052 41.6876V37.7005C35.6208 36.8709 36.0687 35.798 36.0687 34.6086V31.069C36.0687 29.6518 35.4397 28.3945 34.4638 27.5295H35.9233C36.324 27.5295 36.673 27.253 36.7697 26.8592L37.206 25.0895C37.3435 24.5313 36.9268 23.99 36.3589 23.99ZM10.7572 22.6752C11.2873 21.3317 12.5708 20.4505 13.9983 20.4505H23.2337C24.6612 20.4505 25.9447 21.3317 26.4748 22.6752L27.9241 26.3497H9.30786L10.7572 22.6752ZM6.98083 34.5938C5.58461 34.5938 4.6538 33.6529 4.6538 32.2415C4.6538 30.8301 5.58461 29.8892 6.98083 29.8892C8.37704 29.8892 10.4714 32.0063 10.4714 33.4177C10.4714 34.829 8.37704 34.5938 6.98083 34.5938ZM30.2511 34.5938C28.8549 34.5938 26.7606 34.829 26.7606 33.4177C26.7606 32.0063 28.8549 29.8892 30.2511 29.8892C31.6473 29.8892 32.5782 30.8301 32.5782 32.2415C32.5782 33.6529 31.6473 34.5938 30.2511 34.5938Z" fill="#0000FF"/>
<path d="M40.8522 18.6153C40.8522 15.3913 39.6568 12.2851 37.5033 9.91335C35.3497 7.54157 32.3955 6.07754 29.2269 5.81183L29.0893 7.4994C31.8402 7.73009 34.4051 9.00115 36.2748 11.0603C38.1444 13.1195 39.1823 15.8162 39.1823 18.6153H40.8522Z" fill="#0000FF"/>
<path d="M35.164 18.0909C35.164 16.446 34.5541 14.8612 33.4554 13.6511C32.3566 12.441 30.8494 11.6941 29.2328 11.5585L29.114 13.015C30.3702 13.1203 31.5414 13.7007 32.3951 14.641C33.2489 15.5813 33.7228 16.8127 33.7228 18.0909H35.164Z" fill="#0000FF"/>
<path d="M46.4428 20.5329C46.7045 17.9711 46.439 15.382 45.6633 12.9296C44.8875 10.4771 43.6183 8.21457 41.936 6.28504C40.2536 4.3555 38.1947 2.80097 35.8894 1.71976C33.5842 0.638539 31.0827 0.0541639 28.5433 0.0035893L28.5095 1.74988C30.8107 1.79571 33.0774 2.32525 35.1663 3.30502C37.2553 4.28479 39.121 5.69346 40.6455 7.44195C42.17 9.19044 43.3202 11.2407 44.0231 13.4631C44.7261 15.6854 44.9666 18.0315 44.7295 20.353L46.4428 20.5329Z" fill="#0000FF"/>
</svg>
