<svg width="40" height="40" viewBox="0 0 40 40" fill="none" xmlns="http://www.w3.org/2000/svg">
<g clip-path="url(#clip0_80_641)">
<path d="M32.6303 15.6667L36.1117 10.6892L26.5637 4L18.3783 15.6667H32.6303ZM16.8421 5.94413L10.0166 15.6667H18.3783L22.4999 9.83333L16.8421 5.94413Z" fill="#21408E"/>
<path d="M18.3783 15.6667L26.5637 4L36.1117 10.6892L32.6303 15.6667H18.3783ZM18.3783 15.6667H10.0166L16.8421 5.94413L22.4999 9.83333L18.3783 15.6667Z" stroke="#344054" stroke-width="1.6" stroke-linecap="round" stroke-linejoin="round"/>
<path d="M38.0559 15.6666H6.94413C5.8708 15.6666 5 16.5374 5 17.6108V37.0558C5 38.1292 5.8708 39 6.94413 39H38.0559C39.1292 39 40 38.1292 40 37.0558V17.6108C40 16.5374 39.1292 15.6666 38.0559 15.6666Z" fill="#D9D9D9" stroke="#306CFE" stroke-width="1.6" stroke-linecap="round" stroke-linejoin="round"/>
<path d="M30.2774 23.4442H39.9999V31.2226H30.2774C30.022 31.2226 29.7691 31.1723 29.5332 31.0745C29.2972 30.9768 29.0829 30.8335 28.9023 30.6529C28.7218 30.4722 28.5786 30.2578 28.481 30.0218C28.3833 29.7858 28.3331 29.5329 28.3333 29.2775V25.3893C28.3333 24.8736 28.538 24.379 28.9026 24.0142C29.2672 23.6495 29.7617 23.4445 30.2774 23.4442Z" fill="#21408E" stroke="#21408E" stroke-width="1.6" stroke-linecap="round" stroke-linejoin="round"/>
</g>
<defs>
<clipPath id="clip0_80_641">
<rect width="40" height="40" fill="white"/>
</clipPath>
</defs>
</svg>
