<svg width="55" height="55" viewBox="0 0 55 55" fill="none" xmlns="http://www.w3.org/2000/svg">
<path d="M33.0458 17.1875L36.6667 25.2083H18.3333L21.5875 17.1875H33.0458ZM20.625 27.5C19.3646 27.5 18.3333 28.5312 18.3333 29.7916C18.3333 31.052 19.3646 32.0833 20.625 32.0833C21.8854 32.0833 22.9167 31.052 22.9167 29.7916C22.9167 28.5312 21.8854 27.5 20.625 27.5ZM34.375 27.5C33.1146 27.5 32.0833 28.5312 32.0833 29.7916C32.0833 31.052 33.1146 32.0833 34.375 32.0833C35.6354 32.0833 36.6667 31.052 36.6667 29.7916C36.6667 28.5312 35.6354 27.5 34.375 27.5ZM48.125 11.4583V25.2083C48.125 37.927 39.325 49.8208 27.5 52.7083C15.675 49.8208 6.875 37.927 6.875 25.2083V11.4583L27.5 2.29163L48.125 11.4583ZM41.25 27.5L36.3 16.0416C35.8417 14.7125 34.5583 13.75 33.0458 13.75H21.5875C20.075 13.75 18.7917 14.7125 18.3333 16.0416L13.75 27.5V36.6666C13.75 37.927 14.7813 38.9583 16.0417 38.9583H18.3333C19.5938 38.9583 20.625 37.927 20.625 36.6666V34.375H34.375V36.6666C34.375 37.927 35.4063 38.9583 36.6667 38.9583H38.9583C40.2188 38.9583 41.25 37.927 41.25 36.6666V27.5Z" fill="#21408E"/>
</svg>
