<svg width="40" height="40" viewBox="0 0 40 40" fill="none" xmlns="http://www.w3.org/2000/svg">
<circle cx="20" cy="20" r="20" fill="white"/>
<path d="M9.67969 15.2904H31.7344C32.1211 15.2904 32.4375 14.9857 32.4375 14.599C32.4375 14.224 32.1211 13.9193 31.7344 13.9193H9.67969C9.29297 13.9193 8.98828 14.224 8.98828 14.599C8.98828 14.9857 9.29297 15.2904 9.67969 15.2904ZM9.67969 20.599H31.7344C32.1211 20.599 32.4375 20.2943 32.4375 19.9076C32.4375 19.5209 32.1211 19.2162 31.7344 19.2162H9.67969C9.29297 19.2162 8.98828 19.5209 8.98828 19.9076C8.98828 20.2943 9.29297 20.599 9.67969 20.599ZM9.67969 25.8958H31.7344C32.1211 25.8958 32.4375 25.5912 32.4375 25.2044C32.4375 24.8177 32.1211 24.513 31.7344 24.513H9.67969C9.29297 24.513 8.98828 24.8177 8.98828 25.2044C8.98828 25.5912 9.29297 25.8958 9.67969 25.8958Z" fill="#1A54C7"/>
</svg>
