<svg width="154" height="46" viewBox="0 0 154 46" fill="none" xmlns="http://www.w3.org/2000/svg">
<g clip-path="url(#clip0_80_673)">
<path d="M18.0645 0.838867C8.08839 0.838867 0 8.92725 0 18.9034C0 28.8795 8.08839 36.9679 18.0645 36.9679C28.0406 36.9679 36.129 28.8795 36.129 18.9034C36.129 8.92725 28.0406 0.838867 18.0645 0.838867ZM27.1961 15.3582C27.4716 21.4399 22.9359 28.2202 14.9062 28.2202C12.4645 28.2202 10.1929 27.5036 8.27957 26.2767C10.5738 26.5477 12.8634 25.9094 14.6804 24.4868C12.7897 24.4522 11.1925 23.2012 10.64 21.4836C11.3189 21.6131 11.9873 21.5754 12.594 21.4098C10.5151 20.9913 9.07892 19.1187 9.12559 17.115C9.70968 17.4387 10.3751 17.6328 11.0841 17.6554C9.15871 16.3683 8.61376 13.8257 9.74581 11.8823C11.8774 14.4987 15.0643 16.2193 18.6576 16.3999C18.0269 13.6963 20.0787 11.0905 22.8712 11.0905C24.1131 11.0905 25.2376 11.6159 26.0265 12.4559C27.011 12.2632 27.9383 11.9019 28.7723 11.4066C28.4486 12.4167 27.7637 13.2627 26.871 13.7987C27.7456 13.6933 28.5796 13.4614 29.3533 13.1167C28.7753 13.9868 28.0437 14.7485 27.1961 15.3582Z" fill="white"/>
</g>
<g clip-path="url(#clip1_80_673)">
<path d="M77.8387 0.838867C67.8626 0.838867 59.7742 8.92725 59.7742 18.9034C59.7742 28.8795 67.8626 36.9679 77.8387 36.9679C87.8148 36.9679 95.9032 28.8795 95.9032 18.9034C95.9032 8.92725 87.8148 0.838867 77.8387 0.838867ZM82.3548 12.8819H80.3226C79.5127 12.8819 79.3441 13.2146 79.3441 14.0531V15.8926H82.3548L82.0402 18.9034H79.3441V29.441H74.8279V18.9034H71.8172V15.8926H74.8279V12.4182C74.8279 9.75521 76.2294 8.36575 79.3877 8.36575H82.3548V12.8819Z" fill="white"/>
</g>
<g clip-path="url(#clip2_80_673)">
<path d="M139.936 10.3257C138.825 10.2746 138.491 10.2655 135.677 10.2655C132.864 10.2655 132.531 10.2761 131.42 10.3257C128.561 10.4567 127.231 11.8101 127.1 14.6462C127.05 15.7571 127.038 16.0898 127.038 18.9034C127.038 21.7169 127.05 22.0496 127.1 23.1621C127.231 25.9907 128.555 27.3516 131.42 27.4825C132.53 27.5322 132.864 27.5442 135.677 27.5442C138.492 27.5442 138.825 27.5337 139.936 27.4825C142.795 27.3531 144.124 25.9952 144.256 23.1621C144.306 22.0511 144.317 21.7169 144.317 18.9034C144.317 16.0898 144.306 15.7571 144.256 14.6462C144.124 11.8116 142.792 10.4567 139.936 10.3257ZM135.677 24.3152C132.689 24.3152 130.265 21.8931 130.265 18.9034C130.265 15.9152 132.689 13.4931 135.677 13.4931C138.665 13.4931 141.089 15.9152 141.089 18.9034C141.089 21.8916 138.665 24.3152 135.677 24.3152ZM141.303 14.5438C140.604 14.5438 140.038 13.9778 140.038 13.2793C140.038 12.5808 140.604 12.0148 141.303 12.0148C142.001 12.0148 142.567 12.5808 142.567 13.2793C142.567 13.9763 142.001 14.5438 141.303 14.5438ZM139.189 18.9034C139.189 20.8438 137.616 22.4154 135.677 22.4154C133.738 22.4154 132.165 20.8438 132.165 18.9034C132.165 16.963 133.738 15.3913 135.677 15.3913C137.616 15.3913 139.189 16.963 139.189 18.9034ZM135.677 0.838867C125.701 0.838867 117.613 8.92725 117.613 18.9034C117.613 28.8795 125.701 36.9679 135.677 36.9679C145.653 36.9679 153.742 28.8795 153.742 18.9034C153.742 8.92725 145.653 0.838867 135.677 0.838867ZM146.152 23.2479C145.979 27.0791 143.845 29.2017 140.023 29.3778C138.899 29.429 138.539 29.441 135.677 29.441C132.816 29.441 132.457 29.429 131.333 29.3778C127.503 29.2017 125.379 27.0761 125.203 23.2479C125.152 22.1249 125.14 21.7651 125.14 18.9034C125.14 16.0417 125.152 15.6834 125.203 14.5589C125.379 10.7292 127.505 8.6051 131.333 8.43048C132.457 8.37779 132.816 8.36575 135.677 8.36575C138.539 8.36575 138.899 8.37779 140.023 8.43048C143.855 8.60661 145.98 10.7367 146.152 14.5589C146.203 15.6834 146.215 16.0417 146.215 18.9034C146.215 21.7651 146.203 22.1249 146.152 23.2479Z" fill="white"/>
</g>
<defs>
<clipPath id="clip0_80_673">
<rect width="45.1613" height="45.1613" fill="white" transform="translate(0 0.838867)"/>
</clipPath>
<clipPath id="clip1_80_673">
<rect width="36.129" height="36.129" fill="white" transform="translate(59.7742 0.838867)"/>
</clipPath>
<clipPath id="clip2_80_673">
<rect width="36.129" height="36.129" fill="white" transform="translate(117.613 0.838867)"/>
</clipPath>
</defs>
</svg>
