<svg width="62" height="58" fill="none" xmlns="http://www.w3.org/2000/svg"><g clip-path="url('#clip0_80_634')"><path d="M51.667 14.5h-7.75V9.667c0-2.683-2.3-4.834-5.167-4.834h-15.5c-2.867 0-5.167 2.151-5.167 4.834V14.5h-7.75c-2.867 0-5.166 2.15-5.166 4.833v26.584c0 2.682 2.299 4.833 5.166 4.833h41.334c2.867 0 5.166-2.15 5.166-4.833V19.333c0-2.682-2.299-4.833-5.166-4.833ZM23.25 9.667h15.5V14.5h-15.5V9.667Zm28.417 36.25H10.333v-4.834h41.334v4.834Zm0-12.084H10.333v-14.5h7.75v4.834h5.167v-4.834h15.5v4.834h5.167v-4.834h7.75v14.5Z" fill="#21408E"/></g><defs><clipPath id="clip0_80_634"><path fill="#fff" d="M0 0h62v58H0z"/></clipPath></defs></svg>