<svg width="56" height="53" fill="none" xmlns="http://www.w3.org/2000/svg"><path d="M43.749 28.866H38.51l-1.456-3.691c-1.496-3.795-5.067-6.246-9.098-6.246H16.843c-4.03 0-7.602 2.451-9.099 6.246l-1.456 3.691H1.051c-.684 0-1.185.651-1.019 1.323l.525 2.13c.116.473.536.806 1.019.806h1.756A5.672 5.672 0 0 0 1.4 37.384v4.259c0 1.43.539 2.721 1.4 3.72v4.798C2.8 51.728 4.054 53 5.6 53h2.8c1.546 0 2.8-1.272 2.8-2.84v-2.839h22.4v2.84c0 1.567 1.254 2.839 2.8 2.839h2.8c1.546 0 2.8-1.272 2.8-2.84v-4.797a5.674 5.674 0 0 0 1.4-3.72v-4.26a5.674 5.674 0 0 0-1.931-4.258h1.756c.482 0 .902-.333 1.018-.806l.525-2.13c.166-.672-.336-1.323-1.02-1.323Zm-30.805-1.582a4.201 4.201 0 0 1 3.9-2.677h11.112a4.201 4.201 0 0 1 3.9 2.677l1.744 4.421H11.2l1.744-4.42ZM8.4 41.625c-1.68 0-2.8-1.132-2.8-2.83 0-1.699 1.12-2.83 2.8-2.83 1.68 0 4.2 2.547 4.2 4.245s-2.52 1.415-4.2 1.415Zm28 0c-1.68 0-4.2.283-4.2-1.415s2.52-4.246 4.2-4.246c1.68 0 2.8 1.133 2.8 2.83 0 1.699-1.12 2.831-2.8 2.831ZM49.155 22.399c0-3.88-1.438-7.617-4.03-10.47a15.165 15.165 0 0 0-9.958-4.936l-.165 2.03a13.166 13.166 0 0 1 8.646 4.285 13.526 13.526 0 0 1 3.498 9.09h2.01ZM42.31 21.768c0-1.98-.733-3.886-2.055-5.342a7.737 7.737 0 0 0-5.08-2.518l-.144 1.752a6.012 6.012 0 0 1 3.948 1.957 6.176 6.176 0 0 1 1.598 4.15h1.734Z" fill="#fff"/><path d="M55.883 24.706a22.695 22.695 0 0 0-.939-9.149 22.48 22.48 0 0 0-4.484-7.995 22.115 22.115 0 0 0-7.276-5.493 21.835 21.835 0 0 0-8.84-2.065l-.04 2.102c2.77.055 5.496.692 8.01 1.87a20.04 20.04 0 0 1 6.593 4.979 20.372 20.372 0 0 1 4.064 7.244 20.566 20.566 0 0 1 .85 8.29l2.062.217Z" fill="#fff"/></svg>