<svg width="40" height="40" fill="none" xmlns="http://www.w3.org/2000/svg"><g clip-path="url('#clip0_80_641')"><path d="m32.63 15.667 3.482-4.978L26.564 4l-8.186 11.667H32.63ZM16.842 5.944l-6.825 9.723h8.361L22.5 9.833l-5.658-3.889Z" fill="#21408E"/><path d="M18.378 15.667 26.564 4l9.548 6.69-3.482 4.977H18.378Zm0 0h-8.361l6.825-9.723 5.658 3.89-4.122 5.833Z" stroke="#344054" stroke-width="1.6" stroke-linecap="round" stroke-linejoin="round"/><path d="M38.056 15.667H6.944c-1.073 0-1.944.87-1.944 1.944v19.445C5 38.129 5.87 39 6.944 39h31.112C39.129 39 40 38.13 40 37.056V17.61c0-1.074-.87-1.944-1.944-1.944Z" fill="#D9D9D9" stroke="#306CFE" stroke-width="1.6" stroke-linecap="round" stroke-linejoin="round"/><path d="M30.277 23.444H40v7.779h-9.723a1.943 1.943 0 0 1-1.944-1.945v-3.889a1.945 1.945 0 0 1 1.944-1.945Z" fill="#21408E" stroke="#21408E" stroke-width="1.6" stroke-linecap="round" stroke-linejoin="round"/></g><defs><clipPath id="clip0_80_641"><path fill="#fff" d="M0 0h40v40H0z"/></clipPath></defs></svg>