<svg width="62" height="58" viewBox="0 0 62 58" fill="none" xmlns="http://www.w3.org/2000/svg">
<g clip-path="url('#clip0_80_634')">
<path d="M51.6668 14.5H43.9168V9.66671C43.9168 6.98421 41.6176 4.83337 38.7501 4.83337H23.2501C20.3826 4.83337 18.0834 6.98421 18.0834 9.66671V14.5H10.3334C7.46591 14.5 5.16675 16.6509 5.16675 19.3334V45.9167C5.16675 48.5992 7.46591 50.75 10.3334 50.75H51.6668C54.5343 50.75 56.8334 48.5992 56.8334 45.9167V19.3334C56.8334 16.6509 54.5343 14.5 51.6668 14.5ZM23.2501 9.66671H38.7501V14.5H23.2501V9.66671ZM51.6668 45.9167H10.3334V41.0834H51.6668V45.9167ZM51.6668 33.8334H10.3334V19.3334H18.0834V24.1667H23.2501V19.3334H38.7501V24.1667H43.9168V19.3334H51.6668V33.8334Z" fill="#21408E"></path>
</g>
<defs>
<clipPath id="clip0_80_634">
<rect width="62" height="58" fill="white"></rect>
</clipPath>
</defs>
</svg>
