<svg width="56" height="53" viewBox="0 0 56 53" fill="none" xmlns="http://www.w3.org/2000/svg">
<path d="M43.7489 28.8661H38.5102L37.0542 25.175C35.558 21.3801 31.9871 18.9286 27.956 18.9286H16.8435C12.8132 18.9286 9.24144 21.3801 7.74432 25.175L6.28832 28.8661H1.05056C0.367182 28.8661 -0.134193 29.5174 0.0320568 30.189L0.557057 32.3185C0.673433 32.7923 1.09343 33.125 1.57556 33.125H3.33169C2.15656 34.1658 1.39968 35.6786 1.39968 37.3839V41.6429C1.39968 43.0732 1.93868 44.3642 2.79969 45.3632V50.1607C2.79969 51.7285 4.05356 53 5.59969 53H8.39969C9.94582 53 11.1997 51.7285 11.1997 50.1607V47.3214H33.5997V50.1607C33.5997 51.7285 34.8536 53 36.3997 53H39.1997C40.7459 53 41.9997 51.7285 41.9997 50.1607V45.3632C42.8607 44.365 43.3997 43.0741 43.3997 41.6429V37.3839C43.3997 35.6786 42.6429 34.1658 41.4686 33.125H43.2247C43.7069 33.125 44.1269 32.7923 44.2432 32.3185L44.7682 30.189C44.9336 29.5174 44.4322 28.8661 43.7489 28.8661ZM12.9436 27.2841C13.5814 25.6675 15.1258 24.6072 16.8435 24.6072H27.956C29.6736 24.6072 31.218 25.6675 31.8559 27.2841L33.5997 31.7054H11.1997L12.9436 27.2841ZM8.39969 41.6251C6.71969 41.6251 5.59969 40.493 5.59969 38.7947C5.59969 37.0965 6.71969 35.9643 8.39969 35.9643C10.0797 35.9643 12.5997 38.5117 12.5997 40.2099C12.5997 41.9082 10.0797 41.6251 8.39969 41.6251ZM36.3997 41.6251C34.7197 41.6251 32.1997 41.9082 32.1997 40.2099C32.1997 38.5117 34.7197 35.9643 36.3997 35.9643C38.0797 35.9643 39.1997 37.0965 39.1997 38.7947C39.1997 40.493 38.0797 41.6251 36.3997 41.6251Z" fill="white"></path>
<path d="M49.1554 22.3988C49.1554 18.5195 47.717 14.782 45.1258 11.9282C42.5346 9.07433 38.9799 7.31273 35.1673 6.99302L35.0017 9.02359C38.3118 9.30116 41.3979 10.8306 43.6476 13.3083C45.8973 15.786 47.1461 19.0308 47.1461 22.3988H49.1554Z" fill="white"></path>
<path d="M42.3109 21.7679C42.3109 19.7887 41.5771 17.8818 40.255 16.4258C38.933 14.9697 37.1193 14.0709 35.1742 13.9078L35.0312 15.6603C36.5427 15.7871 37.952 16.4855 38.9792 17.6169C40.0065 18.7483 40.5768 20.23 40.5768 21.7679H42.3109Z" fill="white"></path>
<path d="M55.8825 24.7063C56.1974 21.6237 55.878 18.5085 54.9445 15.5575C54.0111 12.6066 52.4839 9.8842 50.4596 7.56248C48.4353 5.24077 45.9579 3.37028 43.1841 2.0693C40.4103 0.768323 37.4005 0.0651728 34.3449 0.00431883L34.3042 2.10554C37.0731 2.16069 39.8005 2.79786 42.3141 3.97677C44.8276 5.15568 47.0725 6.85067 48.9069 8.95454C50.7413 11.0584 52.1251 13.5254 52.971 16.1994C53.8169 18.8735 54.1063 21.6964 53.821 24.4898L55.8825 24.7063Z" fill="white"></path>
</svg>
